<svg id="Ebene_1" data-name="Ebene 1" xmlns="http://www.w3.org/2000/svg" viewBox="0 0 482.46 156.9"><defs><style>.cls-1{fill:none;stroke:#2c6db0;stroke-miterlimit:10;stroke-width:3px;}.cls-2{fill:#1d1d1b;}</style></defs><title>cognigy_logo</title><line class="cls-1" x1="482.46" y1="155.4" y2="155.4"/><path id="path4639" class="cls-2" d="M104.78,94.07v10.2H71c-11.3,0-16.9-5.6-16.9-16.9v-17c0-11.3,5.6-16.9,16.9-16.9h33.8v10.2H72.28c-5.4,0-8.2,2.7-8.2,8.1v14.1c0,5.4,2.7,8.2,8.2,8.2Z"/><path id="path4641" class="cls-2" d="M147.18,94.07c5.6,0,8.5-2.8,8.5-8.5V72.07c0-5.6-2.8-8.5-8.5-8.5h-15.3c-4.6,0-6.7,2.8-6.7,8.5v13.6c0,5.6,2.8,8.5,8.5,8.5l13.5-.1Zm1.7,10.1H132c-11.3,0-16.9-5.6-16.9-16.9v-17c0-11.3,5.6-16.9,16.9-16.9h16.9c11.3,0,16.9,5.6,16.9,16.9v16.9C165.78,98.47,160.08,104.17,148.88,104.17Z"/><path id="path4643" class="cls-2" d="M226.78,77.07v27.1H193c-11.3,0-16.9-5.6-16.9-16.9v-17c0-11.3,5.6-16.9,16.9-16.9h33.8v10.2h-32.5c-5.4,0-8.2,2.7-8.2,8.1v14.2c0,5.4,2.7,8.2,8.2,8.2h22.3v-17Z"/><path id="path4645" class="cls-2" d="M247.08,68.77v35.4h-10.2V53.37h10.4l30.3,35.4V53.37h10.2v50.9h-10.4l-30.3-35.5Z"/><path id="path4647" class="cls-2" d="M308.18,104.17H298V53.37h10.2Z"/><path id="path4649" class="cls-2" d="M369.18,77.07v27.1h-33.8c-11.3,0-16.9-5.6-16.9-16.9v-17c0-11.3,5.6-16.9,16.9-16.9h33.8v10.2h-32.5c-5.4,0-8.2,2.7-8.2,8.1v14.2c0,5.4,2.7,8.2,8.2,8.2H359v-17Z"/><path class="cls-2" d="M428.42,53.33h-10.2v10.9c0,5.5-2.7,8.2-8.2,8.2h-14.1c-5.4,0-8.1-2.7-8.1-8.2l-.1-10.9h-10.1v12.2c0,11.3,5.6,16.9,16.9,16.9h3.37v21.73h10.2V82.43h3.33c11.3,0,16.9-5.6,16.9-16.9l.1-9.2v-3Z"/></svg>